<?xml version="1.0" encoding="UTF-8" standalone="no"?>
<!-- Created with Inkscape (http://www.inkscape.org/) -->

<svg
   xmlns:ns1="http://www.iki.fi/pav/software/textext/"
   xmlns:dc="http://purl.org/dc/elements/1.1/"
   xmlns:cc="http://creativecommons.org/ns#"
   xmlns:rdf="http://www.w3.org/1999/02/22-rdf-syntax-ns#"
   xmlns:svg="http://www.w3.org/2000/svg"
   xmlns="http://www.w3.org/2000/svg"
   xmlns:sodipodi="http://sodipodi.sourceforge.net/DTD/sodipodi-0.dtd"
   xmlns:inkscape="http://www.inkscape.org/namespaces/inkscape"
   width="414.80231mm"
   height="206.59933mm"
   viewBox="0 0 414.8023 206.59934"
   version="1.1"
   id="svg4954"
   inkscape:version="0.92.4 (5da689c313, 2019-01-14)"
   sodipodi:docname="groverization_animation_1.svg"
   inkscape:export-filename="C:\Users\peter\Desktop\projects\xanadu\groveropt\img\lifting_animation\src\4.png"
   inkscape:export-xdpi="127.71"
   inkscape:export-ydpi="127.71">
  <defs
     id="defs4948">
    <marker
       inkscape:stockid="DotM"
       orient="auto"
       refY="0"
       refX="0"
       id="marker25785"
       style="overflow:visible"
       inkscape:isstock="true">
      <path
         inkscape:connector-curvature="0"
         id="path25783"
         d="m -2.5,-1 c 0,2.76 -2.24,5 -5,5 -2.76,0 -5,-2.24 -5,-5 0,-2.76 2.24,-5 5,-5 2.76,0 5,2.24 5,5 z"
         style="fill:#000000;fill-opacity:1;fill-rule:evenodd;stroke:#000000;stroke-width:1.00000003pt;stroke-opacity:1"
         transform="matrix(0.4,0,0,0.4,2.96,0.4)" />
    </marker>
    <marker
       inkscape:stockid="DotM"
       orient="auto"
       refY="0"
       refX="0"
       id="marker25715"
       style="overflow:visible"
       inkscape:isstock="true">
      <path
         inkscape:connector-curvature="0"
         id="path25713"
         d="m -2.5,-1 c 0,2.76 -2.24,5 -5,5 -2.76,0 -5,-2.24 -5,-5 0,-2.76 2.24,-5 5,-5 2.76,0 5,2.24 5,5 z"
         style="fill:#000000;fill-opacity:1;fill-rule:evenodd;stroke:#000000;stroke-width:1.00000003pt;stroke-opacity:1"
         transform="matrix(0.4,0,0,0.4,2.96,0.4)" />
    </marker>
    <marker
       inkscape:stockid="DotM"
       orient="auto"
       refY="0"
       refX="0"
       id="marker25651"
       style="overflow:visible"
       inkscape:isstock="true">
      <path
         inkscape:connector-curvature="0"
         id="path25649"
         d="m -2.5,-1 c 0,2.76 -2.24,5 -5,5 -2.76,0 -5,-2.24 -5,-5 0,-2.76 2.24,-5 5,-5 2.76,0 5,2.24 5,5 z"
         style="fill:#000000;fill-opacity:1;fill-rule:evenodd;stroke:#000000;stroke-width:1.00000003pt;stroke-opacity:1"
         transform="matrix(0.4,0,0,0.4,2.96,0.4)" />
    </marker>
    <marker
       inkscape:stockid="DotM"
       orient="auto"
       refY="0"
       refX="0"
       id="marker25593"
       style="overflow:visible"
       inkscape:isstock="true">
      <path
         inkscape:connector-curvature="0"
         id="path25591"
         d="m -2.5,-1 c 0,2.76 -2.24,5 -5,5 -2.76,0 -5,-2.24 -5,-5 0,-2.76 2.24,-5 5,-5 2.76,0 5,2.24 5,5 z"
         style="fill:#000000;fill-opacity:1;fill-rule:evenodd;stroke:#000000;stroke-width:1.00000003pt;stroke-opacity:1"
         transform="matrix(0.4,0,0,0.4,2.96,0.4)" />
    </marker>
    <marker
       inkscape:stockid="DotM"
       orient="auto"
       refY="0"
       refX="0"
       id="marker25541"
       style="overflow:visible"
       inkscape:isstock="true">
      <path
         inkscape:connector-curvature="0"
         id="path25539"
         d="m -2.5,-1 c 0,2.76 -2.24,5 -5,5 -2.76,0 -5,-2.24 -5,-5 0,-2.76 2.24,-5 5,-5 2.76,0 5,2.24 5,5 z"
         style="fill:#000000;fill-opacity:1;fill-rule:evenodd;stroke:#000000;stroke-width:1.00000003pt;stroke-opacity:1"
         transform="matrix(0.4,0,0,0.4,2.96,0.4)" />
    </marker>
    <marker
       inkscape:stockid="DotM"
       orient="auto"
       refY="0"
       refX="0"
       id="marker25495"
       style="overflow:visible"
       inkscape:isstock="true">
      <path
         inkscape:connector-curvature="0"
         id="path25493"
         d="m -2.5,-1 c 0,2.76 -2.24,5 -5,5 -2.76,0 -5,-2.24 -5,-5 0,-2.76 2.24,-5 5,-5 2.76,0 5,2.24 5,5 z"
         style="fill:#000000;fill-opacity:1;fill-rule:evenodd;stroke:#000000;stroke-width:1.00000003pt;stroke-opacity:1"
         transform="matrix(0.4,0,0,0.4,2.96,0.4)" />
    </marker>
    <marker
       inkscape:stockid="DotM"
       orient="auto"
       refY="0"
       refX="0"
       id="marker25455"
       style="overflow:visible"
       inkscape:isstock="true">
      <path
         inkscape:connector-curvature="0"
         id="path25453"
         d="m -2.5,-1 c 0,2.76 -2.24,5 -5,5 -2.76,0 -5,-2.24 -5,-5 0,-2.76 2.24,-5 5,-5 2.76,0 5,2.24 5,5 z"
         style="fill:#000000;fill-opacity:1;fill-rule:evenodd;stroke:#000000;stroke-width:1.00000003pt;stroke-opacity:1"
         transform="matrix(0.4,0,0,0.4,2.96,0.4)" />
    </marker>
    <marker
       inkscape:isstock="true"
       style="overflow:visible"
       id="marker19047"
       refX="0"
       refY="0"
       orient="auto"
       inkscape:stockid="Arrow2Lend">
      <path
         transform="matrix(-1.1,0,0,-1.1,-1.1,0)"
         d="M 8.7185878,4.0337352 -2.2072895,0.01601326 8.7185884,-4.0017078 c -1.7454984,2.3720609 -1.7354408,5.6174519 -6e-7,8.035443 z"
         style="fill:#000000;fill-opacity:1;fill-rule:evenodd;stroke:#000000;stroke-width:0.625;stroke-linejoin:round;stroke-opacity:1"
         id="path19045"
         inkscape:connector-curvature="0" />
    </marker>
    <marker
       inkscape:isstock="true"
       style="overflow:visible"
       id="marker15473"
       refX="0"
       refY="0"
       orient="auto"
       inkscape:stockid="DotM"
       inkscape:collect="always">
      <path
         transform="matrix(0.4,0,0,0.4,2.96,0.4)"
         style="fill:#000000;fill-opacity:1;fill-rule:evenodd;stroke:#000000;stroke-width:1.00000003pt;stroke-opacity:1"
         d="m -2.5,-1 c 0,2.76 -2.24,5 -5,5 -2.76,0 -5,-2.24 -5,-5 0,-2.76 2.24,-5 5,-5 2.76,0 5,2.24 5,5 z"
         id="path15471"
         inkscape:connector-curvature="0" />
    </marker>
    <marker
       inkscape:stockid="DotM"
       orient="auto"
       refY="0"
       refX="0"
       id="DotM"
       style="overflow:visible"
       inkscape:isstock="true">
      <path
         id="path12537"
         d="m -2.5,-1 c 0,2.76 -2.24,5 -5,5 -2.76,0 -5,-2.24 -5,-5 0,-2.76 2.24,-5 5,-5 2.76,0 5,2.24 5,5 z"
         style="fill:#000000;fill-opacity:1;fill-rule:evenodd;stroke:#000000;stroke-width:1.00000003pt;stroke-opacity:1"
         transform="matrix(0.4,0,0,0.4,2.96,0.4)"
         inkscape:connector-curvature="0" />
    </marker>
    <marker
       inkscape:stockid="TriangleOutL"
       orient="auto"
       refY="0"
       refX="0"
       id="TriangleOutL"
       style="overflow:visible"
       inkscape:isstock="true">
      <path
         id="path12615"
         d="M 5.77,0 -2.88,5 V -5 Z"
         style="fill:#000000;fill-opacity:1;fill-rule:evenodd;stroke:#000000;stroke-width:1.00000003pt;stroke-opacity:1"
         transform="scale(0.8)"
         inkscape:connector-curvature="0" />
    </marker>
    <clipPath
       clipPathUnits="userSpaceOnUse"
       id="clipPath19297">
      <g
         id="g19303"
         style="stroke-width:0.99999994">
        <rect
           transform="scale(1,-1)"
           y="-127.13464"
           x="54.273975"
           height="9.2467241"
           width="32.492519"
           id="rect19299"
           style="opacity:1;fill:#fc8a8a;fill-opacity:0.33506494;stroke:#1c1111;stroke-width:0.36500001;stroke-miterlimit:4;stroke-dasharray:none;stroke-dashoffset:0;stroke-opacity:1" />
        <rect
           style="opacity:1;fill:#fc8a8a;fill-opacity:0.33506494;stroke:#1c1111;stroke-width:0.36500001;stroke-miterlimit:4;stroke-dasharray:none;stroke-dashoffset:0;stroke-opacity:1"
           id="rect19301"
           width="33.962502"
           height="11.538473"
           x="54.273972"
           y="97.632248" />
      </g>
    </clipPath>
    <clipPath
       clipPathUnits="userSpaceOnUse"
       id="clipPath24852">
      <rect
         style="opacity:1;fill:#009ce4;fill-opacity:1;stroke:#1c1111;stroke-width:0.36500001;stroke-miterlimit:4;stroke-dasharray:none;stroke-dashoffset:0;stroke-opacity:1"
         id="rect24854"
         width="52.623199"
         height="18.095837"
         x="29.270624"
         y="-111.07207"
         transform="scale(1,-1)" />
    </clipPath>
  </defs>
  <sodipodi:namedview
     id="base"
     pagecolor="#ffffff"
     bordercolor="#666666"
     borderopacity="1.0"
     inkscape:pageopacity="0.0"
     inkscape:pageshadow="2"
     inkscape:zoom="0.98994949"
     inkscape:cx="770.5523"
     inkscape:cy="418.37449"
     inkscape:document-units="mm"
     inkscape:current-layer="layer1"
     showgrid="false"
     inkscape:window-width="2400"
     inkscape:window-height="1271"
     inkscape:window-x="2391"
     inkscape:window-y="559"
     inkscape:window-maximized="1"
     inkscape:snap-nodes="false" />
  <metadata
     id="metadata4951">
    <rdf:RDF>
      <cc:Work
         rdf:about="">
        <dc:format>image/svg+xml</dc:format>
        <dc:type
           rdf:resource="http://purl.org/dc/dcmitype/StillImage" />
        <dc:title></dc:title>
      </cc:Work>
    </rdf:RDF>
  </metadata>
  <g
     inkscape:label="Layer 1"
     inkscape:groupmode="layer"
     id="layer1"
     transform="translate(-207.67889,10.593931)">
    <rect
       style="opacity:1;fill:#ffffff;fill-opacity:1;stroke:none;stroke-width:0.56831807;stroke-miterlimit:4;stroke-dasharray:none;stroke-dashoffset:0;stroke-opacity:1"
       id="rect5152"
       width="414.26776"
       height="206.59933"
       x="208.21342"
       y="-10.593931" />
    <g
       id="g35776"
       transform="matrix(0.76705894,0,0,1,48.376941,0)"
       style="stroke-width:1.14178836">
      <path
         sodipodi:nodetypes="cc"
         inkscape:tile-y0="26.104484"
         inkscape:tile-x0="200.18488"
         inkscape:connector-curvature="0"
         id="path25147"
         d="M 207.67889,98.412567 H 725.99745"
         style="fill:none;stroke:#000000;stroke-width:0.51762426px;stroke-linecap:butt;stroke-linejoin:miter;stroke-opacity:1"
         inkscape:export-xdpi="300"
         inkscape:export-ydpi="300" />
      <path
         sodipodi:nodetypes="cc"
         inkscape:tile-y0="26.104484"
         inkscape:tile-x0="200.18488"
         inkscape:connector-curvature="0"
         id="path25149"
         d="M 207.67889,114.62814 H 726.06708"
         style="fill:none;stroke:#000000;stroke-width:0.50552922px;stroke-linecap:butt;stroke-linejoin:miter;stroke-opacity:1"
         inkscape:export-xdpi="300"
         inkscape:export-ydpi="300" />
      <path
         sodipodi:nodetypes="cc"
         inkscape:tile-y0="26.104484"
         inkscape:tile-x0="200.18488"
         inkscape:connector-curvature="0"
         id="path25151"
         d="M 207.67889,130.84371 H 725.88492"
         style="fill:none;stroke:#000000;stroke-width:0.50149745px;stroke-linecap:butt;stroke-linejoin:miter;stroke-opacity:1"
         inkscape:export-xdpi="300"
         inkscape:export-ydpi="300" />
      <path
         sodipodi:nodetypes="cc"
         inkscape:tile-y0="26.104484"
         inkscape:tile-x0="200.18488"
         inkscape:connector-curvature="0"
         id="path25153"
         d="M 207.67889,147.0593 H 725.92195"
         style="fill:none;stroke:#000000;stroke-width:0.49746576px;stroke-linecap:butt;stroke-linejoin:miter;stroke-opacity:1"
         inkscape:export-xdpi="300"
         inkscape:export-ydpi="300" />
    </g>
    <g
       id="g25163"
       transform="translate(178.74476)"
       style="fill:#f6f6f6;fill-opacity:1">
      <rect
         rx="1.3849677"
         ry="1.3849677"
         y="91.985023"
         x="32.90596"
         height="12.855067"
         width="12.855067"
         id="rect25155"
         style="opacity:1;fill:#f6f6f6;fill-opacity:1;stroke:#000000;stroke-width:0.29772264;stroke-miterlimit:4;stroke-dasharray:none;stroke-dashoffset:0;stroke-opacity:1"
         inkscape:export-xdpi="300"
         inkscape:export-ydpi="300" />
      <rect
         rx="1.3849677"
         inkscape:export-ydpi="300"
         inkscape:export-xdpi="300"
         style="opacity:1;fill:#f6f6f6;fill-opacity:1;stroke:#000000;stroke-width:0.29772264;stroke-miterlimit:4;stroke-dasharray:none;stroke-dashoffset:0;stroke-opacity:1"
         id="rect25157"
         width="12.855067"
         height="12.855067"
         x="32.90596"
         y="108.31459"
         ry="1.3849677" />
      <rect
         rx="1.3849677"
         ry="1.3849677"
         y="124.20712"
         x="32.90596"
         height="12.855067"
         width="12.855067"
         id="rect25159"
         style="opacity:1;fill:#f6f6f6;fill-opacity:1;stroke:#000000;stroke-width:0.29772264;stroke-miterlimit:4;stroke-dasharray:none;stroke-dashoffset:0;stroke-opacity:1"
         inkscape:export-xdpi="300"
         inkscape:export-ydpi="300" />
      <rect
         rx="1.3849677"
         inkscape:export-ydpi="300"
         inkscape:export-xdpi="300"
         style="opacity:1;fill:#f6f6f6;fill-opacity:1;stroke:#000000;stroke-width:0.29772264;stroke-miterlimit:4;stroke-dasharray:none;stroke-dashoffset:0;stroke-opacity:1"
         id="rect25161"
         width="12.855067"
         height="12.855067"
         x="32.90596"
         y="140.23718"
         ry="1.3849677" />
    </g>
    <g
       transform="translate(212.2307,13.905327)"
       id="g25167"
       style="fill:#f6f6f6;fill-opacity:1">
      <rect
         ry="1.3849676"
         y="78.079697"
         x="48.930656"
         height="29.070644"
         width="12.855067"
         id="rect25165"
         style="opacity:1;fill:#f6f6f6;fill-opacity:1;stroke:#000000;stroke-width:0.29772264;stroke-miterlimit:4;stroke-dasharray:none;stroke-dashoffset:0;stroke-opacity:1"
         inkscape:export-xdpi="300"
         inkscape:export-ydpi="300"
         rx="1.3849677" />
    </g>
    <g
       id="g25171"
       transform="translate(212.2307,46.411287)"
       style="fill:#f6f6f6;fill-opacity:1">
      <rect
         rx="1.3849677"
         inkscape:export-ydpi="300"
         inkscape:export-xdpi="300"
         style="opacity:1;fill:#f6f6f6;fill-opacity:1;stroke:#000000;stroke-width:0.29772264;stroke-miterlimit:4;stroke-dasharray:none;stroke-dashoffset:0;stroke-opacity:1"
         id="rect25169"
         width="12.855067"
         height="29.070644"
         x="48.930656"
         y="78.079697"
         ry="1.3849676" />
    </g>
    <rect
       rx="1.3849677"
       inkscape:export-ydpi="300"
       inkscape:export-xdpi="300"
       style="opacity:1;fill:#f6f6f6;fill-opacity:1;stroke:#000000;stroke-width:0.29772264;stroke-miterlimit:4;stroke-dasharray:none;stroke-dashoffset:0;stroke-opacity:1"
       id="rect25189"
       width="12.855067"
       height="12.855067"
       x="277.66492"
       y="91.985031"
       ry="1.3849677" />
    <rect
       rx="1.3849677"
       ry="1.3849677"
       y="124.41618"
       x="277.66492"
       height="12.855067"
       width="12.855067"
       id="rect25191"
       style="opacity:1;fill:#f6f6f6;fill-opacity:1;stroke:#000000;stroke-width:0.29772264;stroke-miterlimit:4;stroke-dasharray:none;stroke-dashoffset:0;stroke-opacity:1"
       inkscape:export-xdpi="300"
       inkscape:export-ydpi="300" />
    <rect
       rx="1.3849677"
       inkscape:export-ydpi="300"
       inkscape:export-xdpi="300"
       style="opacity:1;fill:#f6f6f6;fill-opacity:1;stroke:#000000;stroke-width:0.29772264;stroke-miterlimit:4;stroke-dasharray:none;stroke-dashoffset:0;stroke-opacity:1"
       id="rect25193"
       width="12.855067"
       height="12.855067"
       x="277.66492"
       y="140.63176"
       ry="1.3849677" />
    <g
       transform="translate(227.26818)"
       id="g25219"
       style="fill:#f6f6f6;fill-opacity:1">
      <g
         transform="translate(34.47316,31.197737)"
         id="g25209"
         style="fill:#f6f6f6;fill-opacity:1">
        <rect
           ry="1.3849676"
           y="78.079697"
           x="48.930656"
           height="29.070644"
           width="12.855067"
           id="rect25207"
           style="opacity:1;fill:#f6f6f6;fill-opacity:1;stroke:#000000;stroke-width:0.29772264;stroke-miterlimit:4;stroke-dasharray:none;stroke-dashoffset:0;stroke-opacity:1"
           inkscape:export-xdpi="300"
           inkscape:export-ydpi="300"
           rx="1.3849677" />
      </g>
      <g
         id="g25213"
         transform="translate(34.47316,-0.99121344)"
         clip-path="url(#clipPath24852)"
         style="fill:#f6f6f6;fill-opacity:1">
        <rect
           rx="1.3849677"
           inkscape:export-ydpi="300"
           inkscape:export-xdpi="300"
           style="opacity:1;fill:#f6f6f6;fill-opacity:1;stroke:#000000;stroke-width:0.29772264;stroke-miterlimit:4;stroke-dasharray:none;stroke-dashoffset:0;stroke-opacity:1"
           id="rect25211"
           width="12.855067"
           height="29.070644"
           x="48.930656"
           y="78.079697"
           ry="1.3849676" />
      </g>
      <g
         clip-path="url(#clipPath24852)"
         transform="matrix(1,0,0,-0.9253592,34.47316,239.7732)"
         id="g25217"
         style="fill:#f6f6f6;fill-opacity:1;stroke-width:1.03954864">
        <rect
           ry="1.4966811"
           y="78.079697"
           x="48.930656"
           height="29.070644"
           width="12.855067"
           id="rect25215"
           style="opacity:1;fill:#f6f6f6;fill-opacity:1;stroke:#000000;stroke-width:0.30949718;stroke-miterlimit:4;stroke-dasharray:none;stroke-dashoffset:0;stroke-opacity:1"
           inkscape:export-xdpi="300"
           inkscape:export-ydpi="300"
           rx="1.3849677" />
      </g>
    </g>
    <g
       id="g25869"
       transform="translate(68.890916)"
       style="fill:#f6f6f6;fill-opacity:1">
      <rect
         rx="1.3849677"
         inkscape:export-ydpi="300"
         inkscape:export-xdpi="300"
         style="opacity:1;fill:#f6f6f6;fill-opacity:1;stroke:#000000;stroke-width:0.29772264;stroke-miterlimit:4;stroke-dasharray:none;stroke-dashoffset:0;stroke-opacity:1"
         id="rect25247"
         width="12.855067"
         height="12.855067"
         x="159.26334"
         y="108.2006"
         ry="1.3849677" />
      <rect
         rx="1.3849677"
         ry="1.3849677"
         y="124.41617"
         x="159.26334"
         height="12.855067"
         width="12.855067"
         id="rect25249"
         style="opacity:1;fill:#f6f6f6;fill-opacity:1;stroke:#000000;stroke-width:0.29772264;stroke-miterlimit:4;stroke-dasharray:none;stroke-dashoffset:0;stroke-opacity:1"
         inkscape:export-xdpi="300"
         inkscape:export-ydpi="300" />
      <g
         id="g25379"
         transform="translate(92.796504)"
         style="fill:#f6f6f6;fill-opacity:1">
        <rect
           inkscape:export-ydpi="300"
           inkscape:export-xdpi="300"
           style="opacity:1;fill:#f6f6f6;fill-opacity:1;stroke:#000000;stroke-width:0.29772264;stroke-miterlimit:4;stroke-dasharray:none;stroke-dashoffset:0;stroke-opacity:1"
           id="rect25381"
           width="12.855067"
           height="12.855067"
           x="66.466835"
           y="91.985023"
           ry="1.3849677"
           rx="1.3849677" />
      </g>
    </g>
    <g
       id="g35764"
       transform="matrix(0.7514996,0,0,1,58.991108,0)"
       style="stroke-width:1.15354788">
      <path
         inkscape:export-ydpi="300"
         inkscape:export-xdpi="300"
         style="fill:none;stroke:#000000;stroke-width:0.50666249px;stroke-linecap:butt;stroke-linejoin:miter;stroke-opacity:1"
         d="M 237.38838,69.180426 H 727.15955"
         id="path25293"
         inkscape:connector-curvature="0"
         inkscape:tile-x0="200.18488"
         inkscape:tile-y0="26.104484" />
      <path
         inkscape:tile-y0="26.104484"
         inkscape:tile-x0="200.18488"
         inkscape:connector-curvature="0"
         id="path25353"
         d="M 237.38838,66.534591 H 727.15955"
         style="fill:none;stroke:#000000;stroke-width:0.50666249px;stroke-linecap:butt;stroke-linejoin:miter;stroke-opacity:1"
         inkscape:export-xdpi="300"
         inkscape:export-ydpi="300" />
      <path
         inkscape:export-ydpi="300"
         inkscape:export-xdpi="300"
         style="fill:none;stroke:#000000;stroke-width:0.50666249px;stroke-linecap:butt;stroke-linejoin:miter;stroke-opacity:1"
         d="M 237.38838,63.888756 H 727.15955"
         id="path25361"
         inkscape:connector-curvature="0"
         inkscape:tile-x0="200.18488"
         inkscape:tile-y0="26.104484" />
      <path
         inkscape:tile-y0="26.104484"
         inkscape:tile-x0="200.18488"
         inkscape:connector-curvature="0"
         id="path25393"
         d="M 237.38838,61.242921 H 727.15955"
         style="fill:none;stroke:#000000;stroke-width:0.50666249px;stroke-linecap:butt;stroke-linejoin:miter;stroke-opacity:1"
         inkscape:export-xdpi="300"
         inkscape:export-ydpi="300" />
    </g>
    <g
       id="g35770">
      <path
         inkscape:export-ydpi="300"
         inkscape:export-xdpi="300"
         style="fill:none;stroke:#000000;stroke-width:0.43568993px;stroke-linecap:butt;stroke-linejoin:miter;stroke-opacity:1"
         d="M 283.66489,83.128162 H 605.24144"
         id="path25295"
         inkscape:connector-curvature="0"
         inkscape:tile-x0="200.18488"
         inkscape:tile-y0="26.104484" />
      <path
         inkscape:tile-y0="26.104484"
         inkscape:tile-x0="200.18488"
         inkscape:connector-curvature="0"
         id="path25355"
         d="M 283.66489,80.482327 H 605.24144"
         style="fill:none;stroke:#000000;stroke-width:0.43568993px;stroke-linecap:butt;stroke-linejoin:miter;stroke-opacity:1"
         inkscape:export-xdpi="300"
         inkscape:export-ydpi="300" />
      <path
         inkscape:export-ydpi="300"
         inkscape:export-xdpi="300"
         style="fill:none;stroke:#000000;stroke-width:0.43568993px;stroke-linecap:butt;stroke-linejoin:miter;stroke-opacity:1"
         d="M 283.66489,77.836492 H 605.24144"
         id="path25363"
         inkscape:connector-curvature="0"
         inkscape:tile-x0="200.18488"
         inkscape:tile-y0="26.104484" />
      <path
         inkscape:tile-y0="26.104484"
         inkscape:tile-x0="200.18488"
         inkscape:connector-curvature="0"
         id="path25395"
         d="M 283.66489,75.190657 H 605.24144"
         style="fill:none;stroke:#000000;stroke-width:0.43568993px;stroke-linecap:butt;stroke-linejoin:miter;stroke-opacity:1"
         inkscape:export-xdpi="300"
         inkscape:export-ydpi="300" />
    </g>
    <path
       inkscape:export-ydpi="300"
       inkscape:export-xdpi="300"
       style="fill:#f6f6f6;fill-opacity:1;stroke:#000000;stroke-width:0.336;stroke-linecap:butt;stroke-linejoin:miter;stroke-miterlimit:4;stroke-dasharray:none;stroke-opacity:1;marker-start:url(#marker25715)"
       d="M 244.80542,61.161656 V 141.19398"
       id="path25401"
       inkscape:connector-curvature="0"
       inkscape:tile-x0="200.18488"
       inkscape:tile-y0="26.104484" />
    <path
       inkscape:tile-y0="26.104484"
       inkscape:tile-x0="200.18488"
       inkscape:connector-curvature="0"
       id="path25403"
       d="M 247.45125,63.700716 V 141.19398"
       style="fill:#f6f6f6;fill-opacity:1;stroke:#000000;stroke-width:0.336;stroke-linecap:butt;stroke-linejoin:miter;stroke-miterlimit:4;stroke-dasharray:none;stroke-opacity:1;marker-start:url(#marker25651)"
       inkscape:export-xdpi="300"
       inkscape:export-ydpi="300" />
    <path
       inkscape:export-ydpi="300"
       inkscape:export-xdpi="300"
       style="fill:#f6f6f6;fill-opacity:1;stroke:#000000;stroke-width:0.336;stroke-linecap:butt;stroke-linejoin:miter;stroke-miterlimit:4;stroke-dasharray:none;stroke-opacity:1;marker-start:url(#marker25593)"
       d="M 250.09709,66.573863 V 141.19398"
       id="path25405"
       inkscape:connector-curvature="0"
       inkscape:tile-x0="200.18488"
       inkscape:tile-y0="26.104484" />
    <path
       inkscape:tile-y0="26.104484"
       inkscape:tile-x0="200.18488"
       inkscape:connector-curvature="0"
       id="path25407"
       d="M 252.74292,69.313375 V 141.19398"
       style="fill:#f6f6f6;fill-opacity:1;stroke:#000000;stroke-width:0.336;stroke-linecap:butt;stroke-linejoin:miter;stroke-miterlimit:4;stroke-dasharray:none;stroke-opacity:1;marker-start:url(#marker25541)"
       inkscape:export-xdpi="300"
       inkscape:export-ydpi="300" />
    <path
       inkscape:tile-y0="26.104484"
       inkscape:tile-x0="200.18488"
       inkscape:connector-curvature="0"
       id="path25430"
       d="M 293.40167,75.017752 V 111.42126"
       style="fill:#f6f6f6;fill-opacity:1;stroke:#000000;stroke-width:0.33600003;stroke-linecap:butt;stroke-linejoin:miter;stroke-miterlimit:4;stroke-dasharray:none;stroke-opacity:1;marker-start:url(#marker25495)"
       inkscape:export-xdpi="300"
       inkscape:export-ydpi="300" />
    <path
       inkscape:export-ydpi="300"
       inkscape:export-xdpi="300"
       style="fill:#f6f6f6;fill-opacity:1;stroke:#000000;stroke-width:0.33600003;stroke-linecap:butt;stroke-linejoin:miter;stroke-miterlimit:4;stroke-dasharray:none;stroke-opacity:1;marker-start:url(#marker15473)"
       d="M 296.04748,77.890892 V 111.42125"
       id="path25432"
       inkscape:connector-curvature="0"
       inkscape:tile-x0="200.18488"
       inkscape:tile-y0="26.104484" />
    <path
       inkscape:tile-y0="26.104484"
       inkscape:tile-x0="200.18488"
       inkscape:connector-curvature="0"
       id="path25434"
       d="M 298.69333,80.496772 V 111.42125"
       style="fill:#f6f6f6;fill-opacity:1;stroke:#000000;stroke-width:0.33600003;stroke-linecap:butt;stroke-linejoin:miter;stroke-miterlimit:4;stroke-dasharray:none;stroke-opacity:1;marker-start:url(#marker25455)"
       inkscape:export-xdpi="300"
       inkscape:export-ydpi="300" />
    <path
       inkscape:export-ydpi="300"
       inkscape:export-xdpi="300"
       style="fill:#f6f6f6;fill-opacity:1;stroke:#000000;stroke-width:0.33600003;stroke-linecap:butt;stroke-linejoin:miter;stroke-miterlimit:4;stroke-dasharray:none;stroke-opacity:1;marker-start:url(#marker25785)"
       d="M 301.33916,83.097346 V 111.42125"
       id="path25436"
       inkscape:connector-curvature="0"
       inkscape:tile-x0="200.18488"
       inkscape:tile-y0="26.104484" />
    <rect
       ry="1.3849677"
       y="108.58723"
       x="277.93753"
       height="12.855067"
       width="29.297031"
       id="rect25424"
       style="opacity:1;fill:#a0d1fe;fill-opacity:1;stroke:#000000;stroke-width:0.29772264;stroke-miterlimit:4;stroke-dasharray:none;stroke-dashoffset:0;stroke-opacity:1"
       inkscape:export-xdpi="300"
       inkscape:export-ydpi="300"
       rx="1.3849678" />
    <rect
       rx="1.3849678"
       inkscape:export-ydpi="300"
       inkscape:export-xdpi="300"
       style="opacity:1;fill:#a0d1fe;fill-opacity:1;stroke:#000000;stroke-width:0.29772264;stroke-miterlimit:4;stroke-dasharray:none;stroke-dashoffset:0;stroke-opacity:1"
       id="rect25241"
       width="28.896128"
       height="12.855067"
       x="228.48613"
       y="140.63176"
       ry="1.3849677" />
    <g
       id="g28502"
       ns1:jacobian_sqrt="0.601384"
       inkscapeversion="0.92.4"
       ns1:alignment="middle center"
       ns1:scale="1.7047119269"
       ns1:preamble="default_packages.tex"
       ns1:text="$U(\\theta)$\n\n\n\n"
       ns1:pdfconverter="pdf2svg"
       ns1:texconverter="pdflatex"
       ns1:version="0.11.0"
       transform="matrix(0.601384,0,0,0.601384,147.408,67.51254)">
      <g
         id="g28500">
        <g
           id="g28486"
           style="fill:#000000;fill-opacity:1">
          <path
             id="path28484"
             transform="translate(148.712,134.765)"
             d="M 6.328125,-5.765625 C 6.4375,-6.171875 6.609375,-6.46875 7.40625,-6.5 c 0.046875,0 0.171875,-0.015625 0.171875,-0.203125 0,0 0,-0.109375 -0.125,-0.109375 -0.328125,0 -0.6875,0.03125 -1.015625,0.03125 -0.34375,0 -0.71875,-0.03125 -1.046875,-0.03125 -0.0625,0 -0.171875,0 -0.171875,0.203125 C 5.21875,-6.5 5.3125,-6.5 5.390625,-6.5 c 0.578125,0.015625 0.6875,0.21875 0.6875,0.4375 0,0.03125 -0.03125,0.1875 -0.03125,0.203125 l -0.90625,3.5625 C 4.8125,-0.953125 3.65625,-0.09375 2.65625,-0.09375 c -0.671875,0 -1.203125,-0.4375 -1.203125,-1.296875 0,-0.015625 0,-0.328125 0.109375,-0.765625 L 2.515625,-6.046875 C 2.609375,-6.40625 2.625,-6.5 3.359375,-6.5 c 0.265625,0 0.34375,0 0.34375,-0.203125 0,-0.109375 -0.109375,-0.109375 -0.140625,-0.109375 -0.28125,0 -1,0.03125 -1.28125,0.03125 -0.28125,0 -1,-0.03125 -1.28125,-0.03125 -0.078125,0 -0.1875,0 -0.1875,0.203125 C 0.8125,-6.5 0.890625,-6.5 1.09375,-6.5 c 0.015625,0 0.203125,0 0.375,0.015625 0.171875,0.03125 0.265625,0.03125 0.265625,0.171875 0,0.046875 -0.109375,0.46875 -0.171875,0.703125 l -0.21875,0.875 C 1.25,-4.34375 0.78125,-2.46875 0.734375,-2.265625 0.671875,-2 0.671875,-1.84375 0.671875,-1.6875 c 0,1.203125 0.90625,1.90625 1.953125,1.90625 1.25,0 2.484375,-1.125 2.8125,-2.4375 z m 0,0"
             style="stroke:none;stroke-width:0"
             inkscape:connector-curvature="0" />
        </g>
        <g
           id="g28490"
           style="fill:#000000;fill-opacity:1">
          <path
             id="path28488"
             transform="translate(156.601,134.765)"
             d="m 3.296875,2.390625 c 0,-0.03125 0,-0.046875 -0.171875,-0.21875 C 1.890625,0.921875 1.5625,-0.96875 1.5625,-2.5 c 0,-1.734375 0.375,-3.46875 1.609375,-4.703125 0.125,-0.125 0.125,-0.140625 0.125,-0.171875 0,-0.078125 -0.03125,-0.109375 -0.09375,-0.109375 -0.109375,0 -1,0.6875 -1.59375,1.953125 -0.5,1.09375 -0.625,2.203125 -0.625,3.03125 0,0.78125 0.109375,1.984375 0.65625,3.125 C 2.25,1.84375 3.09375,2.5 3.203125,2.5 c 0.0625,0 0.09375,-0.03125 0.09375,-0.109375 z m 0,0"
             style="stroke:none;stroke-width:0"
             inkscape:connector-curvature="0" />
        </g>
        <g
           id="g28494"
           style="fill:#000000;fill-opacity:1">
          <path
             id="path28492"
             transform="translate(160.475,134.765)"
             d="m 4.53125,-4.984375 c 0,-0.65625 -0.171875,-2.046875 -1.1875,-2.046875 -1.390625,0 -2.921875,2.8125 -2.921875,5.09375 0,0.9375 0.28125,2.046875 1.1875,2.046875 1.40625,0 2.921875,-2.859375 2.921875,-5.09375 z M 1.46875,-3.625 C 1.640625,-4.25 1.84375,-5.046875 2.25,-5.765625 2.515625,-6.25 2.875,-6.8125 3.328125,-6.8125 c 0.484375,0 0.546875,0.640625 0.546875,1.203125 0,0.5 -0.078125,1 -0.3125,1.984375 z m 2,0.328125 C 3.359375,-2.84375 3.15625,-2 2.765625,-1.28125 c -0.34375,0.6875 -0.71875,1.171875 -1.15625,1.171875 -0.328125,0 -0.53125,-0.296875 -0.53125,-1.21875 0,-0.421875 0.0625,-1 0.3125,-1.96875 z m 0,0"
             style="stroke:none;stroke-width:0"
             inkscape:connector-curvature="0" />
        </g>
        <g
           id="g28498"
           style="fill:#000000;fill-opacity:1">
          <path
             id="path28496"
             transform="translate(165.429,134.765)"
             d="m 2.875,-2.5 c 0,-0.765625 -0.109375,-1.96875 -0.65625,-3.109375 -0.59375,-1.21875 -1.453125,-1.875 -1.546875,-1.875 -0.0625,0 -0.109375,0.046875 -0.109375,0.109375 0,0.03125 0,0.046875 0.1875,0.234375 0.984375,0.984375 1.546875,2.5625 1.546875,4.640625 0,1.71875 -0.359375,3.46875 -1.59375,4.71875 C 0.5625,2.34375 0.5625,2.359375 0.5625,2.390625 0.5625,2.453125 0.609375,2.5 0.671875,2.5 0.765625,2.5 1.671875,1.8125 2.25,0.546875 2.765625,-0.546875 2.875,-1.65625 2.875,-2.5 Z m 0,0"
             style="stroke:none;stroke-width:0"
             inkscape:connector-curvature="0" />
        </g>
      </g>
    </g>
    <g
       style="stroke-width:1.58483303"
       transform="matrix(0.54963518,0,0,0.54963518,205.00237,42.312969)"
       ns1:version="0.11.0"
       ns1:texconverter="pdflatex"
       ns1:pdfconverter="pdf2svg"
       ns1:text="$V(\\phi)$\n\n\n\n"
       ns1:preamble="default_packages.tex"
       ns1:scale="2.46920440322"
       ns1:alignment="middle center"
       inkscapeversion="0.92.4"
       ns1:jacobian_sqrt="0.87108"
       id="g28534">
      <g
         style="stroke-width:1.58483303"
         id="g28532">
        <g
           style="fill:#000000;fill-opacity:1;stroke-width:1.58483303"
           id="g28518">
          <path
             inkscape:connector-curvature="0"
             style="stroke:none;stroke-width:0"
             d="M 6.265625,-5.671875 C 6.75,-6.453125 7.171875,-6.484375 7.53125,-6.5 c 0.125,-0.015625 0.140625,-0.171875 0.140625,-0.1875 0,-0.078125 -0.0625,-0.125 -0.140625,-0.125 -0.25,0 -0.546875,0.03125 -0.8125,0.03125 -0.328125,0 -0.671875,-0.03125 -0.984375,-0.03125 -0.0625,0 -0.1875,0 -0.1875,0.1875 0,0.109375 0.078125,0.125 0.15625,0.125 0.265625,0.015625 0.453125,0.125 0.453125,0.328125 0,0.15625 -0.140625,0.375 -0.140625,0.375 l -3.0625,4.875 -0.6875,-5.28125 C 2.265625,-6.375 2.5,-6.5 2.953125,-6.5 c 0.140625,0 0.25,0 0.25,-0.203125 0,-0.078125 -0.078125,-0.109375 -0.125,-0.109375 -0.40625,0 -0.828125,0.03125 -1.25,0.03125 -0.171875,0 -0.359375,0 -0.546875,0 -0.171875,0 -0.359375,-0.03125 -0.53125,-0.03125 -0.078125,0 -0.1875,0 -0.1875,0.1875 0,0.125 0.078125,0.125 0.25,0.125 0.546875,0 0.5625,0.09375 0.59375,0.34375 L 2.1875,-0.015625 C 2.21875,0.1875 2.265625,0.21875 2.390625,0.21875 c 0.15625,0 0.203125,-0.046875 0.28125,-0.171875 z m 0,0"
             transform="translate(148.712,134.765)"
             id="path28516" />
        </g>
        <g
           style="fill:#000000;fill-opacity:1;stroke-width:1.58483303"
           id="g28522">
          <path
             inkscape:connector-curvature="0"
             style="stroke:none;stroke-width:0"
             d="m 3.296875,2.390625 c 0,-0.03125 0,-0.046875 -0.171875,-0.21875 C 1.890625,0.921875 1.5625,-0.96875 1.5625,-2.5 c 0,-1.734375 0.375,-3.46875 1.609375,-4.703125 0.125,-0.125 0.125,-0.140625 0.125,-0.171875 0,-0.078125 -0.03125,-0.109375 -0.09375,-0.109375 -0.109375,0 -1,0.6875 -1.59375,1.953125 -0.5,1.09375 -0.625,2.203125 -0.625,3.03125 0,0.78125 0.109375,1.984375 0.65625,3.125 C 2.25,1.84375 3.09375,2.5 3.203125,2.5 c 0.0625,0 0.09375,-0.03125 0.09375,-0.109375 z m 0,0"
             transform="translate(156.738,134.765)"
             id="path28520" />
        </g>
        <g
           style="fill:#000000;fill-opacity:1;stroke-width:1.58483303"
           id="g28526">
          <path
             inkscape:connector-curvature="0"
             style="stroke:none;stroke-width:0"
             d="m 4.359375,-6.671875 c 0,-0.03125 0.03125,-0.140625 0.03125,-0.140625 0,-0.015625 0,-0.109375 -0.125,-0.109375 -0.09375,0 -0.109375,0.03125 -0.15625,0.203125 L 3.53125,-4.421875 c -1.578125,0.0625 -3.046875,1.375 -3.046875,2.734375 0,0.953125 0.703125,1.734375 1.921875,1.8125 C 2.328125,0.421875 2.25,0.75 2.171875,1.0625 c -0.125,0.46875 -0.21875,0.84375 -0.21875,0.875 0,0.09375 0.078125,0.109375 0.125,0.109375 C 2.125,2.046875 2.140625,2.03125 2.171875,2 2.1875,1.984375 2.25,1.75 2.28125,1.609375 L 2.65625,0.125 c 1.609375,-0.0625 3.0625,-1.40625 3.0625,-2.734375 0,-0.796875 -0.53125,-1.703125 -1.921875,-1.8125 z m -1.90625,6.578125 c -0.59375,-0.03125 -1.3125,-0.390625 -1.3125,-1.375 0,-1.203125 0.859375,-2.59375 2.34375,-2.734375 z m 1.28125,-4.109375 c 0.765625,0.046875 1.328125,0.5 1.328125,1.375 0,1.1875 -0.859375,2.609375 -2.34375,2.734375 z m 0,0"
             transform="translate(160.612,134.765)"
             id="path28524" />
        </g>
        <g
           style="fill:#000000;fill-opacity:1;stroke-width:1.58483303"
           id="g28530">
          <path
             inkscape:connector-curvature="0"
             style="stroke:none;stroke-width:0"
             d="m 2.875,-2.5 c 0,-0.765625 -0.109375,-1.96875 -0.65625,-3.109375 -0.59375,-1.21875 -1.453125,-1.875 -1.546875,-1.875 -0.0625,0 -0.109375,0.046875 -0.109375,0.109375 0,0.03125 0,0.046875 0.1875,0.234375 0.984375,0.984375 1.546875,2.5625 1.546875,4.640625 0,1.71875 -0.359375,3.46875 -1.59375,4.71875 C 0.5625,2.34375 0.5625,2.359375 0.5625,2.390625 0.5625,2.453125 0.609375,2.5 0.671875,2.5 0.765625,2.5 1.671875,1.8125 2.25,0.546875 2.765625,-0.546875 2.875,-1.65625 2.875,-2.5 Z m 0,0"
             transform="translate(166.548,134.765)"
             id="path28528" />
        </g>
      </g>
    </g>
    <path
       style="opacity:1;fill:none;fill-opacity:1;stroke:#000000;stroke-width:0.3653591;stroke-miterlimit:4;stroke-dasharray:none;stroke-dashoffset:0;stroke-opacity:1"
       d="m 238.49112,155.50993 21.29622,7.15715 H 366.454 c 0.65433,0 1.18113,0.19362 1.18113,0.43411 v 22.00601 c 0,0.24049 -0.5268,0.43411 -1.18113,0.43411 H 244.34945 c -0.65432,0 -1.18108,-0.19362 -1.18108,-0.43411 v -20.56994 c 0,-0.2405 -5.31209,-9.24069 -4.67725,-9.02733 z"
       id="path5502"
       inkscape:connector-curvature="0"
       sodipodi:nodetypes="scssssssss" />
    <text
       id="text5510"
       y="172.26065"
       x="245.00546"
       style="font-style:normal;font-weight:normal;font-size:8.46666622px;line-height:1.25;font-family:sans-serif;letter-spacing:0px;word-spacing:0px;fill:#000000;fill-opacity:1;stroke:none;stroke-width:0.26458332"
       xml:space="preserve"><tspan
         style="stroke-width:0.26458332"
         y="172.26065"
         x="245.00546"
         sodipodi:role="line"
         id="tspan5508">&quot;Lift&quot; parameterized gates</tspan><tspan
         id="tspan5552"
         style="stroke-width:0.26458332"
         y="182.84398"
         x="245.00546"
         sodipodi:role="line">to be controlled quantum-ly</tspan></text>
    <g
       id="g5170"
       transform="translate(8.0180859,16.303441)">
      <path
         style="opacity:1;fill:#ffc9cd;fill-opacity:1;stroke:none;stroke-width:0.36500001;stroke-miterlimit:4;stroke-dasharray:none;stroke-dashoffset:0;stroke-opacity:1"
         id="path5560"
         sodipodi:type="arc"
         sodipodi:cx="232.29459"
         sodipodi:cy="171.41608"
         sodipodi:rx="7.1343002"
         sodipodi:ry="7.1343002"
         sodipodi:start="4.7249554"
         sodipodi:end="0"
         d="m 232.38424,164.28234 a 7.1343002,7.1343002 0 0 1 7.04465,7.13374 h -7.1343 z" />
      <text
         xml:space="preserve"
         style="font-style:normal;font-weight:normal;font-size:8.46666622px;line-height:1.25;font-family:sans-serif;letter-spacing:0px;word-spacing:0px;fill:#000000;fill-opacity:1;stroke:none;stroke-width:0.26458332"
         x="229.47925"
         y="174.50426"
         id="text5556"><tspan
           sodipodi:role="line"
           id="tspan5554"
           x="229.47925"
           y="174.50426"
           style="stroke-width:0.26458332">1</tspan></text>
      <path
         d="m 232.38424,164.28234 a 7.1343002,7.1343002 0 0 1 7.04409,7.22299 7.1343002,7.1343002 0 0 1 -7.22259,7.04449 7.1343002,7.1343002 0 0 1 -7.04491,-7.22219 7.1343002,7.1343002 0 0 1 7.2218,-7.04531"
         sodipodi:end="4.7247305"
         sodipodi:start="4.7249554"
         sodipodi:ry="7.1343002"
         sodipodi:rx="7.1343002"
         sodipodi:cy="171.41608"
         sodipodi:cx="232.29459"
         sodipodi:type="arc"
         id="path5564"
         style="opacity:1;fill:none;fill-opacity:1;stroke:#000000;stroke-width:0.16500001;stroke-miterlimit:4;stroke-dasharray:none;stroke-dashoffset:0;stroke-opacity:1"
         sodipodi:open="true" />
    </g>
  </g>
</svg>
